<svg width="48" height="43" xmlns="http://www.w3.org/2000/svg">
  <path d="M24.848 30.44a6.5 6.5 0 1 0 3.597 3.435 6.46 6.46 0 0 0-3.597-3.435zm-.405 10.473a4.816 4.816 0 1 1 2.459-6.354 4.788 4.788 0 0 1-2.459 6.354zM46.876 25.05l-15.337 6.42a.799.799 0 0 0-.532.64.774.774 0 0 0 .346.746.87.87 0 0 0 .856.058l15.337-6.42a.773.773 0 0 0 .383-1.023c-.178-.383-.64-.568-1.053-.42zM19.16 29c.284 0 .55-.142.704-.377a.816.816 0 0 0 .063-.787L8.517 2.43v-.044a.824.824 0 0 0-.056-.094l-.05-.06-.057-.061-.061-.05-.068-.05-.067-.032L8.08 2H.84a.834.834 0 0 0-.84.827c0 .457.377.828.841.828h6.375L18.43 28.592c.152.254.43.41.73.408zm22.675-5.731c.234-.615.219-1.3-.044-1.904l-5.134-11.88c-.543-1.257-1.98-1.827-3.21-1.273l-13.994 6.32c-1.23.555-1.788 2.023-1.246 3.28l4.03 9.297a.805.805 0 0 0 1.051.382.837.837 0 0 0 .432-1.051l-4.023-9.291a.847.847 0 0 1-.02-.643.822.822 0 0 1 .437-.464l4.938-2.214 1.75 4.062a.268.268 0 0 0 .455.066l.449-.553a.268.268 0 0 1 .216-.1l.986.034a.268.268 0 0 0 .217-.1l.644-.769a.268.268 0 0 1 .217-.1h.687a.27.27 0 0 0 .232-.122.282.282 0 0 0 .023-.265l-1.76-4.067L34.107 9.7a.796.796 0 0 1 .629-.02.82.82 0 0 1 .454.446l5.134 11.876c.09.203.097.434.019.643a.822.822 0 0 1-.436.463l-11.67 5.285a.838.838 0 0 0-.181 1.456c.246.177.568.2.836.06l11.66-5.262a2.451 2.451 0 0 0 1.283-1.378zM22.315.223a2.904 2.904 0 0 0-2.36.057l-5.092 2.386a3.197 3.197 0 0 0-1.649 1.81 3.46 3.46 0 0 0 .047 2.515l1.677 4.03a3.174 3.174 0 0 0 1.704 1.752c.765.32 1.62.301 2.372-.051l5.123-2.415a3.197 3.197 0 0 0 1.649-1.809c.3-.811.284-1.717-.047-2.516l-1.709-4.03A3.152 3.152 0 0 0 22.315.223zm1.95 7.647a1.53 1.53 0 0 1-.785.873l-5.091 2.386c-.36.17-.77.18-1.138.029a1.527 1.527 0 0 1-.823-.834l-1.677-4.03a1.665 1.665 0 0 1-.027-1.207 1.54 1.54 0 0 1 .786-.873l1.42-.663.796 1.966a.145.145 0 0 0 .246.04l.246-.306a.146.146 0 0 1 .117-.057h.535a.147.147 0 0 0 .117-.056l.353-.437a.146.146 0 0 1 .117-.056h.374c.05 0 .098-.027.126-.071a.167.167 0 0 0 .013-.15l-.817-1.962 1.42-.663c.361-.17.77-.18 1.138-.029.368.151.664.451.823.834l1.678 4.03c.177.387.196.834.053 1.236z" fill="#B9A978"/>
</svg>