<svg width="33" height="31" xmlns="http://www.w3.org/2000/svg">
  <path d="M30.421 5.606h-5.625V2.613c0-1.441-1.157-2.613-2.58-2.613H10.785c-1.422 0-2.58 1.172-2.58 2.613v2.993H2.58C1.157 5.606 0 6.777 0 8.218v20.17C0 29.827 1.157 31 2.579 31h27.842C31.843 31 33 29.828 33 28.387V8.218c0-1.44-1.157-2.612-2.579-2.612zM9.988 2.613c0-.444.357-.806.795-.806h11.433c.439 0 .796.362.796.806v2.993H9.988V2.613zm-7.409 4.8h27.842a.8.8 0 0 1 .795.805v6.205l-14.628 3.58-14.804-3.582V8.218c0-.444.357-.806.795-.806zm27.842 21.78H2.58a.802.802 0 0 1-.795-.805v-12.11l14.598 3.534a.856.856 0 0 0 .417 0l14.418-3.53v12.106a.802.802 0 0 1-.796.806z" fill="#B9A978"/>
</svg>