<svg preserveAspectRatio="none slice" width="31" height="36" xmlns="http://www.w3.org/2000/svg">
  <path d="M30.964 7.39v-.036c0-.074-.036-.11-.036-.183-.035-.037-.071-.11-.107-.147v-.036L25.315.256A.638.638 0 0 0 24.779 0H5.9a.74.74 0 0 0-.572.293L.143 7.024c-.036.037-.071.11-.107.147C0 7.207 0 7.28 0 7.317v27.951c0 .403.322.732.715.732h29.57c.393 0 .715-.33.715-.732V7.463c-.036-.036-.036-.036-.036-.073zM13.373 1.463L12.3 6.732H2.18l4.076-5.269h7.116zm.214 27.403h3.754v5.78h-3.754v-5.78zm4.505-1.464h-5.22a.726.726 0 0 0-.715.732v6.512H1.43V8.196h10.763v6.914c0 .402.321.731.715.731h5.184a.725.725 0 0 0 .715-.731V8.195H29.57V34.61H18.807v-6.476a.726.726 0 0 0-.715-.732zM13.587 8.195h3.754v6.183h-3.754V8.195zm5.077-1.463l-1.037-5.269h6.794l4.326 5.269H18.664zm-2.467-5.269l1.037 5.269h-3.432l1.072-5.269h1.323z" fill="#B9A978"/>
</svg>