<svg width="34" height="34" xmlns="http://www.w3.org/2000/svg">
  <path d="M32.03 12.514h-3.257a6.452 6.452 0 0 0 2.287-4.099 6.436 6.436 0 0 0-1.285-4.833C27.57.715 23.418.157 20.517 2.334c-1.542 1.157-2.703 4.167-3.446 6.7-.743-2.533-1.904-5.543-3.445-6.7a6.605 6.605 0 0 0-4.89-1.273 6.572 6.572 0 0 0-4.367 2.52 6.436 6.436 0 0 0-1.285 4.833 6.452 6.452 0 0 0 2.287 4.099h-3.4a.964.964 0 0 0-.971.959v18.569c0 .53.434.959.97.959h30.06a.965.965 0 0 0 .971-.96V13.474a.964.964 0 0 0-.97-.959zM13.21 31.083H2.941v-16.65h10.27v16.65zm-6.403-19.88a4.573 4.573 0 0 1-.893-6.462 4.64 4.64 0 0 1 3.083-1.779 4.708 4.708 0 0 1 3.452.898c1.414 1.06 2.762 5.327 3.446 8.378-3.154.167-7.674.026-9.088-1.036zm12.04 19.88h-3.695v-16.65h3.694v16.65zm-.601-18.845c.685-3.051 2.032-7.317 3.445-8.378 2.048-1.538 4.98-1.143 6.537.881a4.58 4.58 0 0 1-.892 6.462c-1.413 1.061-5.933 1.202-9.09 1.035zm12.812 18.845h-10.27v-16.65h10.27v16.65z" fill="#B9A978" stroke="#444" stroke-width=".4"/>
</svg>