<svg width="26" height="47" xmlns="http://www.w3.org/2000/svg">
  <path d="M12.767 40.34v.001zm1.753-15.804V39.13L20.98 43c.507.251.839.767.839 1.345 0 .835-.684 1.505-1.52 1.505H5.71a1.516 1.516 0 0 1-1.46-1.09 1.5 1.5 0 0 1 .674-1.703l6.557-3.927V24.535c-6.206-.562-10.33-4.59-10.33-10.317 0-1.225.166-2.716.47-4.43.177-1 .397-2.053.653-3.152a134.97 134.97 0 0 1 1.09-4.255A1.516 1.516 0 0 1 4.857 1.15h16.286c.73 0 1.36.514 1.495 1.232-.018-.098.72 2.67 1.09 4.255.255 1.099.475 2.152.652 3.152.304 1.713.47 3.204.47 4.43 0 5.727-4.125 9.755-10.33 10.317z" stroke="#B9A978" stroke-width="1.7" fill="none"/>
</svg>